:FULLY-SPECIFIED
:FORCE-ALL-JOINTS-BE-3DOF
:DEGREES
1053
root 1.20515 15.1607 32.5541 4.89165 -3.35613 363.418
lfemur 8.78852 0.426517 5.70556
ltibia -2.73425e-14 0 0
lfoot -30.3873 -11.1373 0
ltoes -34.3024 0 0
rfemur -30.9992 -15.6377 -6.27954
rtibia 49.9929 0 0
rfoot -21.8718 5.32698 0
rtoes -41.0072 0 0
lowerback -1.83797 -0.0628759 -0.214067
upperback -0.4816 -0.0461505 -6.02981
thorax 0.531529 -0.0246397 -6.13051
lowerneck -7.05603 0.719347 6.49703
upperneck 1.36043 0.26885 3.7118
head 1.62624 0.264896 0.0768205
lclavicle 2.05197e-15 2.32898e-14 0
lhumerus -58.7292 -46.9176 115.431
lradius 55.8135 0 0
lwrist 25.5759 0 0
lhand 37.4542 25.2885 0
lfingers 7.12502 0 0
lthumb 60.2533 38.8 0
rclavicle 2.05197e-15 2.32898e-14 0
rhumerus 2.10209 -23.4963 0.621293
rradius 27.4882 0 0
rwrist -9.67725 0 0
rhand -30.5125 -41.9991 0
rfingers 7.12502 0 0
rthumb -3.8124 -791.945 0
1054
root 1.20708 15.1608 32.5577 4.89346 -3.35527 363.415
lfemur 8.79989 0.426814 5.70262
ltibia -2.87789e-14 0 0
lfoot -30.3954 -11.1424 0
ltoes -34.2976 0 0
rfemur -30.9816 -15.6275 -6.28919
rtibia 49.9854 0 0
rfoot -21.8576 5.34326 0
rtoes -40.9616 0 0
lowerback -1.85075 -0.0606902 -0.228938
upperback -0.480067 -0.0424393 -6.03225
thorax 0.54071 -0.0226183 -6.12453
lowerneck -7.05052 0.713387 6.50304
upperneck 1.34884 0.261221 3.71836
head 1.62135 0.260816 0.0775764
lclavicle 2.1193e-15 2.43671e-14 0
lhumerus -58.7309 -46.931 115.435
lradius 55.815 0 0
lwrist 25.5865 0 0
lhand 37.4608 25.2981 0
lfingers 7.12502 0 0
lthumb 60.259 38.8035 0
rclavicle 2.1193e-15 2.43671e-14 0
rhumerus 2.08084 -23.4846 0.633818
rradius 27.4835 0 0
rwrist -9.66103 0 0
rhand -30.5063 -41.9746 0
rfingers 7.12502 0 0
rthumb -3.80634 -791.92 0
1055
root 1.20902 15.1608 32.5613 4.89526 -3.3544 363.412
lfemur 8.81127 0.427112 5.69968
ltibia -3.02153e-14 0 0
lfoot -30.4036 -11.1476 0
ltoes -34.2928 0 0
rfemur -30.964 -15.6172 -6.29884
rtibia 49.9779 0 0
rfoot -21.8435 5.35955 0
rtoes -40.916 0 0
lowerback -1.86352 -0.0585045 -0.243808
upperback -0.478533 -0.038728 -6.03469
thorax 0.549891 -0.0205969 -6.11856
lowerneck -7.045 0.707426 6.50905
upperneck 1.33724 0.253593 3.72491
head 1.61646 0.256736 0.0783323
lclavicle 2.18663e-15 2.54444e-14 0
lhumerus -58.7326 -46.9443 115.439
lradius 55.8165 0 0
lwrist 25.5971 0 0
lhand 37.4675 25.3077 0
lfingers 7.12502 0 0
lthumb 60.2647 38.8071 0
rclavicle 2.18663e-15 2.54444e-14 0
rhumerus 2.05959 -23.473 0.646342
rradius 27.4787 0 0
rwrist -9.64481 0 0
rhand -30.5 -41.9501 0
rfingers 7.12502 0 0
rthumb -3.80028 -791.896 0
1056
root 1.21096 15.1611 32.5653 4.90058 -3.36228 363.404
lfemur 8.76664 0.439327 5.67801
ltibia 0.120367 0 0
lfoot -30.4681 -11.1226 0
ltoes -34.2925 0 0
rfemur -30.945 -15.5923 -6.30286
rtibia 49.9587 0 0
rfoot -21.842 5.34427 0
rtoes -40.9213 0 0
lowerback -1.87177 -0.0579937 -0.254433
upperback -0.479764 -0.0376043 -6.03097
thorax 0.553374 -0.0200212 -6.1085
lowerneck -7.06249 0.705105 6.5019
upperneck 1.36452 0.247924 3.7313
head 1.62848 0.25522 0.0814182
lclavicle 2.14495e-15 2.57522e-14 0
lhumerus -58.7187 -46.9346 115.437
lradius 55.8115 0 0
lwrist 25.5965 0 0
lhand 37.4748 25.31 0
lfingers 7.12502 0 0
lthumb 60.2709 38.8027 0
rclavicle 2.14495e-15 2.57522e-14 0
rhumerus 2.05424 -23.4459 0.640036
rradius 27.4822 0 0
rwrist -9.62371 0 0
rhand -30.5015 -41.9251 0
rfingers 7.12502 0 0
rthumb -3.80169 -791.871 0
1057
root 1.21289 15.1615 32.5692 4.9059 -3.37016 363.397
lfemur 8.72201 0.451541 5.65634
ltibia 0.240734 0 0
lfoot -30.5325 -11.0977 0
ltoes -34.2922 0 0
rfemur -30.926 -15.5675 -6.30687
rtibia 49.9396 0 0
rfoot -21.8405 5.32898 0
rtoes -40.9266 0 0
lowerback -1.88001 -0.0574828 -0.265059
upperback -0.480996 -0.0364807 -6.02724
thorax 0.556858 -0.0194455 -6.09845
lowerneck -7.07997 0.702783 6.49475
upperneck 1.39181 0.242256 3.7377
head 1.6405 0.253704 0.084504
lclavicle 2.10327e-15 2.606e-14 0
lhumerus -58.7048 -46.925 115.434
lradius 55.8065 0 0
lwrist 25.596 0 0
lhand 37.4821 25.3124 0
lfingers 7.12502 0 0
lthumb 60.2772 38.7983 0
rclavicle 2.10327e-15 2.606e-14 0
rhumerus 2.04888 -23.4187 0.633729
rradius 27.4857 0 0
rwrist -9.60261 0 0
rhand -30.5029 -41.9001 0
rfingers 7.12502 0 0
rthumb -3.8031 -791.846 0
1058
root 1.21483 15.1618 32.5732 4.91122 -3.37805 363.389
lfemur 8.67738 0.463756 5.63468
ltibia 0.361101 0 0
lfoot -30.597 -11.0727 0
ltoes -34.2919 0 0
rfemur -30.9071 -15.5426 -6.31089
rtibia 49.9204 0 0
rfoot -21.839 5.3137 0
rtoes -40.9319 0 0
lowerback -1.88826 -0.056972 -0.275684
upperback -0.482227 -0.035357 -6.02352
thorax 0.560341 -0.0188698 -6.08839
lowerneck -7.09746 0.700462 6.48759
upperneck 1.41909 0.236587 3.74409
head 1.65253 0.252189 0.0875899
lclavicle 2.06159e-15 2.63678e-14 0
lhumerus -58.6909 -46.9153 115.432
lradius 55.8015 0 0
lwrist 25.5954 0 0
lhand 37.4894 25.3147 0
lfingers 7.12502 0 0
lthumb 60.2834 38.7939 0
rclavicle 2.06159e-15 2.63678e-14 0
rhumerus 2.04353 -23.3916 0.627423
rradius 27.4892 0 0
rwrist -9.58151 0 0
rhand -30.5044 -41.8751 0
rfingers 7.12502 0 0
rthumb -3.80451 -791.821 0
1059
root 1.21677 15.1621 32.5771 4.91654 -3.38593 363.382
lfemur 8.63275 0.475971 5.61301
ltibia 0.481468 0 0
lfoot -30.6614 -11.0477 0
ltoes -34.2916 0 0
rfemur -30.8881 -15.5177 -6.31491
rtibia 49.9012 0 0
rfoot -21.8375 5.29841 0
rtoes -40.9373 0 0
lowerback -1.8965 -0.0564611 -0.286309
upperback -0.483458 -0.0342333 -6.01979
thorax 0.563825 -0.0182942 -6.07834
lowerneck -7.11495 0.69814 6.48044
upperneck 1.44638 0.230918 3.75048
head 1.66455 0.250673 0.0906757
lclavicle 2.01991e-15 2.66756e-14 0
lhumerus -58.6769 -46.9057 115.429
lradius 55.7965 0 0
lwrist 25.5948 0 0
lhand 37.4967 25.317 0
lfingers 7.12502 0 0
lthumb 60.2896 38.7895 0
rclavicle 2.01991e-15 2.66756e-14 0
rhumerus 2.03817 -23.3645 0.621116
rradius 27.4926 0 0
rwrist -9.56041 0 0
rhand -30.5058 -41.8501 0
rfingers 7.12502 0 0
rthumb -3.80592 -791.796 0
1060
root 1.2187 15.1624 32.5811 4.92186 -3.39381 363.374
lfemur 8.58812 0.488186 5.59134
ltibia 0.601835 0 0
lfoot -30.7259 -11.0227 0
ltoes -34.2913 0 0
rfemur -30.8691 -15.4929 -6.31892
rtibia 49.882 0 0
rfoot -21.836 5.28313 0
rtoes -40.9426 0 0
lowerback -1.90475 -0.0559503 -0.296934
upperback -0.48469 -0.0331096 -6.01607
thorax 0.567308 -0.0177185 -6.06828
lowerneck -7.13244 0.695819 6.47329
upperneck 1.47366 0.225249 3.75688
head 1.67657 0.249157 0.0937616
lclavicle 1.97823e-15 2.69834e-14 0
lhumerus -58.663 -46.896 115.427
lradius 55.7915 0 0
lwrist 25.5942 0 0
lhand 37.504 25.3193 0
lfingers 7.12502 0 0
lthumb 60.2958 38.7851 0
rclavicle 1.97823e-15 2.69834e-14 0
rhumerus 2.03282 -23.3374 0.61481
rradius 27.4961 0 0
rwrist -9.53931 0 0
rhand -30.5073 -41.8251 0
rfingers 7.12502 0 0
rthumb -3.80733 -791.771 0
1061
root 1.22064 15.1628 32.585 4.92718 -3.40169 363.367
lfemur 8.54349 0.5004 5.56967
ltibia 0.722203 0 0
lfoot -30.7904 -10.9978 0
ltoes -34.2909 0 0
rfemur -30.8501 -15.468 -6.32294
rtibia 49.8629 0 0
rfoot -21.8346 5.26785 0
rtoes -40.9479 0 0
lowerback -1.91299 -0.0554394 -0.30756
upperback -0.485921 -0.031986 -6.01234
thorax 0.570792 -0.0171428 -6.05822
lowerneck -7.14992 0.693497 6.46614
upperneck 1.50095 0.219581 3.76327
head 1.68859 0.247641 0.0968475
lclavicle 1.93655e-15 2.72912e-14 0
lhumerus -58.6491 -46.8864 115.424
lradius 55.7865 0 0
lwrist 25.5937 0 0
lhand 37.5113 25.3217 0
lfingers 7.12502 0 0
lthumb 60.3021 38.7807 0
rclavicle 1.93655e-15 2.72912e-14 0
rhumerus 2.02746 -23.3102 0.608504
rradius 27.4996 0 0
rwrist -9.51821 0 0
rhand -30.5088 -41.8001 0
rfingers 7.12502 0 0
rthumb -3.80874 -791.746 0
1062
root 1.22258 15.1631 32.589 4.9325 -3.40958 363.359
lfemur 8.49886 0.512615 5.54801
ltibia 0.84257 0 0
lfoot -30.8548 -10.9728 0
ltoes -34.2906 0 0
rfemur -30.8312 -15.4431 -6.32696
rtibia 49.8437 0 0
rfoot -21.8331 5.25256 0
rtoes -40.9532 0 0
lowerback -1.92124 -0.0549286 -0.318185
upperback -0.487152 -0.0308623 -6.00862
thorax 0.574275 -0.0165671 -6.04817
lowerneck -7.16741 0.691176 6.45898
upperneck 1.52823 0.213912 3.76966
head 1.70062 0.246126 0.0999333
lclavicle 1.89487e-15 2.7599e-14 0
lhumerus -58.6352 -46.8767 115.422
lradius 55.7815 0 0
lwrist 25.5931 0 0
lhand 37.5186 25.324 0
lfingers 7.12502 0 0
lthumb 60.3083 38.7763 0
rclavicle 1.89487e-15 2.7599e-14 0
rhumerus 2.02211 -23.2831 0.602197
rradius 27.5031 0 0
rwrist -9.49711 0 0
rhand -30.5102 -41.7751 0
rfingers 7.12502 0 0
rthumb -3.81015 -791.721 0
1063
root 1.22451 15.1634 32.5929 4.93783 -3.41746 363.351
lfemur 8.45423 0.52483 5.52634
ltibia 0.962937 0 0
lfoot -30.9193 -10.9478 0
ltoes -34.2903 0 0
rfemur -30.8122 -15.4183 -6.33097
rtibia 49.8245 0 0
rfoot -21.8316 5.23728 0
rtoes -40.9585 0 0
lowerback -1.92949 -0.0544178 -0.32881
upperback -0.488384 -0.0297386 -6.00489
thorax 0.577759 -0.0159914 -6.03811
lowerneck -7.1849 0.688855 6.45183
upperneck 1.55552 0.208243 3.77606
head 1.71264 0.24461 0.103019
lclavicle 1.85319e-15 2.79068e-14 0
lhumerus -58.6213 -46.8671 115.419
lradius 55.7766 0 0
lwrist 25.5925 0 0
lhand 37.526 25.3263 0
lfingers 7.12502 0 0
lthumb 60.3145 38.7719 0
rclavicle 1.85319e-15 2.79068e-14 0
rhumerus 2.01676 -23.256 0.595891
rradius 27.5066 0 0
rwrist -9.476 0 0
rhand -30.5117 -41.7501 0
rfingers 7.12502 0 0
rthumb -3.81157 -791.696 0
1064
root 1.22645 15.1637 32.5969 4.94315 -3.42534 363.344
lfemur 8.4096 0.537045 5.50467
ltibia 1.0833 0 0
lfoot -30.9838 -10.9229 0
ltoes -34.29 0 0
rfemur -30.7932 -15.3934 -6.33499
rtibia 49.8054 0 0
rfoot -21.8301 5.222 0
rtoes -40.9638 0 0
lowerback -1.93773 -0.0539069 -0.339435
upperback -0.489615 -0.0286149 -6.00117
thorax 0.581242 -0.0154157 -6.02805
lowerneck -7.20238 0.686533 6.44468
upperneck 1.5828 0.202574 3.78245
head 1.72466 0.243094 0.106105
lclavicle 1.8115e-15 2.82146e-14 0
lhumerus -58.6074 -46.8574 115.417
lradius 55.7716 0 0
lwrist 25.592 0 0
lhand 37.5333 25.3287 0
lfingers 7.12502 0 0
lthumb 60.3207 38.7675 0
rclavicle 1.8115e-15 2.82146e-14 0
rhumerus 2.0114 -23.2288 0.589585
rradius 27.5101 0 0
rwrist -9.4549 0 0
rhand -30.5132 -41.7251 0
rfingers 7.12502 0 0
rthumb -3.81298 -791.671 0
1065
root 1.22839 15.1641 32.6008 4.94847 -3.43322 363.336
lfemur 8.36497 0.549259 5.483
ltibia 1.20367 0 0
lfoot -31.0482 -10.8979 0
ltoes -34.2897 0 0
rfemur -30.7742 -15.3685 -6.33901
rtibia 49.7862 0 0
rfoot -21.8286 5.20671 0
rtoes -40.9691 0 0
lowerback -1.94598 -0.0533961 -0.350061
upperback -0.490847 -0.0274913 -5.99744
thorax 0.584726 -0.0148401 -6.018
lowerneck -7.21987 0.684212 6.43753
upperneck 1.61009 0.196906 3.78884
head 1.73668 0.241578 0.109191
lclavicle 1.76982e-15 2.85224e-14 0
lhumerus -58.5934 -46.8478 115.414
lradius 55.7666 0 0
lwrist 25.5914 0 0
lhand 37.5406 25.331 0
lfingers 7.12502 0 0
lthumb 60.327 38.7631 0
rclavicle 1.76982e-15 2.85224e-14 0
rhumerus 2.00605 -23.2017 0.583278
rradius 27.5136 0 0
rwrist -9.4338 0 0
rhand -30.5146 -41.7001 0
rfingers 7.12502 0 0
rthumb -3.81439 -791.646 0
